<svg id="Layer_1" data-name="Layer 1" xmlns="http://www.w3.org/2000/svg" width="193.5mm" height="59.8mm" viewBox="0 0 548.5 169.4">
  <defs>
    <style>
      .cls-1 {
        fill: #ffd104;
        fill-rule: evenodd;
      }
    </style>
  </defs>
  <title>logo</title>
  <g>
    <g>
      <path d="M533.4,178.3a25.2,25.2,0,0,1-1.8,9.6,21.5,21.5,0,0,1-5,7.5,22.7,22.7,0,0,1-7.8,5,28,28,0,0,1-10.2,1.8H490.1V154.4h18.5a28,28,0,0,1,10.2,1.8,24.3,24.3,0,0,1,7.8,5,21.9,21.9,0,0,1,5,7.6A24.7,24.7,0,0,1,533.4,178.3Zm-11.3,0a18.3,18.3,0,0,0-1-6.4,12.4,12.4,0,0,0-2.6-4.8,10,10,0,0,0-4.2-3.1,14.8,14.8,0,0,0-5.7-1h-7.4v30.7h7.4a14.8,14.8,0,0,0,5.7-1.1,10.8,10.8,0,0,0,4.2-3,13.6,13.6,0,0,0,2.6-4.9A18.3,18.3,0,0,0,522.1,178.3Z" transform="translate(-278.7 -125.1)"/>
      <path d="M555.2,163.9a19.2,19.2,0,0,1,6.9,1.2,15.5,15.5,0,0,1,5.3,3.4,14.4,14.4,0,0,1,3.5,5.4,20.7,20.7,0,0,1,1.3,7.3,12.5,12.5,0,0,1-.2,2.1,2.1,2.1,0,0,1-.4,1.2,1.2,1.2,0,0,1-.7.7l-1.3.2H547.9c.3,3.1,1.3,5.4,2.8,6.8a8.8,8.8,0,0,0,6,2.1,10.9,10.9,0,0,0,3.4-.4,15.6,15.6,0,0,0,2.6-1.1l2-1a4.5,4.5,0,0,1,1.9-.5,2.4,2.4,0,0,1,2.1,1l3.2,4a19.1,19.1,0,0,1-3.7,3.3,17.5,17.5,0,0,1-4.2,1.9,21.3,21.3,0,0,1-4.2,1l-4.1.3a20.2,20.2,0,0,1-7.4-1.3,18.4,18.4,0,0,1-6.1-3.8,18.1,18.1,0,0,1-4.1-6.4,23.5,23.5,0,0,1-1.5-8.8,18.7,18.7,0,0,1,1.3-7.1,18.4,18.4,0,0,1,3.7-6,19.2,19.2,0,0,1,5.9-4A18.6,18.6,0,0,1,555.2,163.9Zm.2,7.8a6.8,6.8,0,0,0-5,1.8,10,10,0,0,0-2.4,5.3h14.1a11.7,11.7,0,0,0-.4-2.6,7,7,0,0,0-1.1-2.3,5.8,5.8,0,0,0-2.1-1.6A7.1,7.1,0,0,0,555.4,171.7Z" transform="translate(-278.7 -125.1)"/>
      <path d="M618.3,154.4V163H598.7v12.1H615v8.5H598.7v18.6H587.5V154.4Z" transform="translate(-278.7 -125.1)"/>
      <path d="M648,202.2a4.9,4.9,0,0,1-2.4-.4,3.3,3.3,0,0,1-1.4-1.9l-.8-2-2.7,2.1-2.7,1.5a11.8,11.8,0,0,1-3,1,19,19,0,0,1-3.5.3,14.1,14.1,0,0,1-4.7-.7,9.1,9.1,0,0,1-3.6-2,8.5,8.5,0,0,1-2.3-3.2,12.5,12.5,0,0,1-.8-4.5,10.7,10.7,0,0,1,1-4.1,10.9,10.9,0,0,1,3.6-3.9,21.1,21.1,0,0,1,6.7-2.8,44.3,44.3,0,0,1,10.8-1.4v-1.6c0-2.2-.5-3.8-1.4-4.7a5,5,0,0,0-3.9-1.5,9.6,9.6,0,0,0-3.2.4,9.9,9.9,0,0,0-2.3,1l-2,1a4.8,4.8,0,0,1-2.2.4,3.4,3.4,0,0,1-2-.6,5.3,5.3,0,0,1-1.3-1.3l-2-3.6a23.5,23.5,0,0,1,7.6-4.5,28.1,28.1,0,0,1,8.9-1.4,14.8,14.8,0,0,1,6.1,1.1,12.9,12.9,0,0,1,4.7,3.1,13.3,13.3,0,0,1,2.9,4.7,16.3,16.3,0,0,1,1,5.9v23.6Zm-13-6.9a9.4,9.4,0,0,0,3.9-.7,15.9,15.9,0,0,0,3.3-2.5v-5.2a38.6,38.6,0,0,0-5.6.5,16.2,16.2,0,0,0-3.5,1.1,5.2,5.2,0,0,0-1.7,1.5,4.1,4.1,0,0,0-.5,1.8,3.1,3.1,0,0,0,1,2.7A4.8,4.8,0,0,0,635,195.3Z" transform="translate(-278.7 -125.1)"/>
      <path d="M688,173.4a3,3,0,0,1-.9,1,2.1,2.1,0,0,1-1.4.4,2.6,2.6,0,0,1-1.5-.4l-1.5-.9-2-.9a7.5,7.5,0,0,0-2.8-.4,8.3,8.3,0,0,0-3.6.8,5.6,5.6,0,0,0-2.4,2.2,8.8,8.8,0,0,0-1.5,3.4,21.9,21.9,0,0,0-.5,4.7c0,3.6.7,6.3,2.1,8.3a6.8,6.8,0,0,0,5.8,2.9,8.7,8.7,0,0,0,3.1-.5,6.8,6.8,0,0,0,1.9-1.1l1.5-1.1a3.1,3.1,0,0,1,1.7-.5,2.1,2.1,0,0,1,2,1l3.3,4a22.5,22.5,0,0,1-3.7,3.3,15.6,15.6,0,0,1-3.9,1.9,20.4,20.4,0,0,1-4.1,1l-3.9.3a18.5,18.5,0,0,1-6.6-1.3,16.4,16.4,0,0,1-5.5-3.8,17.5,17.5,0,0,1-3.8-6.2,21.1,21.1,0,0,1-1.4-8.2,23.9,23.9,0,0,1,1.2-7.7,16.7,16.7,0,0,1,9.5-10.2,20.2,20.2,0,0,1,8.1-1.5,17.7,17.7,0,0,1,13.8,5.6Z" transform="translate(-278.7 -125.1)"/>
      <path d="M709.2,202.8a14.2,14.2,0,0,1-4.8-.8,10,10,0,0,1-3.4-2.2,10.2,10.2,0,0,1-2.1-3.5,12.9,12.9,0,0,1-.8-4.5V172.3h-3.2a2,2,0,0,1-1.4-.6,1.9,1.9,0,0,1-.7-1.6v-4.4l6-1.2,2.2-9.2a2.2,2.2,0,0,1,2.5-1.7h5.9v11h9.4v7.7h-9.4V191a3.8,3.8,0,0,0,.6,2.2,2.6,2.6,0,0,0,1.9.8h1l.7-.3.6-.3h.7l.8.2a2.8,2.8,0,0,1,.6.8l3.4,5.3a16.2,16.2,0,0,1-4.9,2.5A21,21,0,0,1,709.2,202.8Z" transform="translate(-278.7 -125.1)"/>
      <path d="M740.6,163.9a22.2,22.2,0,0,1,7.9,1.4,17.1,17.1,0,0,1,6,3.8,16.8,16.8,0,0,1,3.9,6.1,24.1,24.1,0,0,1,0,16.2,16.8,16.8,0,0,1-3.9,6.1,17.3,17.3,0,0,1-6,3.9,22.2,22.2,0,0,1-7.9,1.4,21.6,21.6,0,0,1-7.8-1.4,16.8,16.8,0,0,1-6.1-3.9,17,17,0,0,1-4-6.1,24.1,24.1,0,0,1,0-16.2,17,17,0,0,1,4-6.1,16.6,16.6,0,0,1,6.1-3.8A21.6,21.6,0,0,1,740.6,163.9Zm0,30.5a6.7,6.7,0,0,0,5.8-2.7c1.2-1.9,1.8-4.6,1.8-8.4s-.6-6.5-1.8-8.3a6.7,6.7,0,0,0-5.8-2.7c-2.6,0-4.6.9-5.8,2.7s-1.9,4.6-1.9,8.3.6,6.5,1.9,8.4S738,194.4,740.6,194.4Z" transform="translate(-278.7 -125.1)"/>
    </g>
    <g>
      <path d="M319.2,238.2l6.8-55h19.6a24,24,0,0,1,9.5,1.8,21.6,21.6,0,0,1,7.2,5,23.4,23.4,0,0,1,4.6,7.6,29.7,29.7,0,0,1,1.6,9.6,36.1,36.1,0,0,1-2.2,12.5,29.8,29.8,0,0,1-6.2,9.8,27.6,27.6,0,0,1-9.3,6.4,30.1,30.1,0,0,1-11.7,2.3Zm20.8-9.8a16,16,0,0,0,6.7-1.4,14.8,14.8,0,0,0,5.2-4.1,20.6,20.6,0,0,0,3.4-6.6,30.4,30.4,0,0,0,1.2-8.9,23.1,23.1,0,0,0-.8-6.1,13.7,13.7,0,0,0-2.4-4.5,9.8,9.8,0,0,0-3.6-2.8,11.9,11.9,0,0,0-5.1-1h-8l-4.4,35.4Z" transform="translate(-278.7 -125.1)"/>
      <polygon points="92.2 113.2 99 58.1 132 58.1 130.8 68 109.5 68 107.9 81.7 125.8 81.7 124.5 91.6 106.7 91.6 104 113.2 92.2 113.2"/>
    </g>
    <g>
      <path d="M511.3,227.8v3.5H495.6v11.4H509v3.6H495.6v14h-4.4V227.8Z" transform="translate(-278.7 -125.1)"/>
      <path d="M527.4,260.3c-.4,0-.7,0-.9-.2a1,1,0,0,1-.5-.7l-.5-2.2-1.8,1.5a7.8,7.8,0,0,1-1.8,1.1l-2,.7-2.4.2a6.9,6.9,0,0,1-2.5-.4,5.3,5.3,0,0,1-2.1-1.1,5.5,5.5,0,0,1-1.4-1.9,7.6,7.6,0,0,1-.5-2.7,5,5,0,0,1,.8-2.6,6.7,6.7,0,0,1,2.4-2.3,17,17,0,0,1,4.4-1.6,38.2,38.2,0,0,1,6.6-.7v-1.8a6.9,6.9,0,0,0-1.1-4.1,4.2,4.2,0,0,0-3.4-1.3,8.5,8.5,0,0,0-2.5.3l-1.8.9-1.2.8a1.9,1.9,0,0,1-1.1.4l-.7-.2-.5-.5-.7-1.3a11.1,11.1,0,0,1,4.1-2.8,12.6,12.6,0,0,1,4.9-.9,9,9,0,0,1,3.4.6,7.6,7.6,0,0,1,2.5,1.8,8.5,8.5,0,0,1,1.6,2.8,12.3,12.3,0,0,1,.5,3.5v14.7Zm-8.7-2.4a6.4,6.4,0,0,0,2-.3,4.4,4.4,0,0,0,1.6-.6,4,4,0,0,0,1.5-1,5.7,5.7,0,0,0,1.4-1.3V250a30.6,30.6,0,0,0-4.7.4,15.8,15.8,0,0,0-3.2.9,3.9,3.9,0,0,0-1.8,1.4,2.7,2.7,0,0,0-.6,1.7,4.1,4.1,0,0,0,.3,1.6,2.7,2.7,0,0,0,.8,1l1.2.7Z" transform="translate(-278.7 -125.1)"/>
      <path d="M551.4,241.4l-.4.4h-.5a1.1,1.1,0,0,1-.7-.3l-1.1-.6-1.4-.6a6.9,6.9,0,0,0-2.2-.3,7.3,7.3,0,0,0-3,.6,5.8,5.8,0,0,0-2.1,1.7,8.2,8.2,0,0,0-1.4,2.8,13.7,13.7,0,0,0-.4,3.6,10.7,10.7,0,0,0,.5,3.7,8,8,0,0,0,1.3,2.8,6.5,6.5,0,0,0,2.1,1.6,6.7,6.7,0,0,0,2.8.6,6.2,6.2,0,0,0,4-1.1l1.1-.8c.3-.2.5-.4.8-.4a1.2,1.2,0,0,1,.8.4l1.1,1.5a8.5,8.5,0,0,1-1.7,1.6l-2,1.1a10.5,10.5,0,0,1-2.4.6,9.9,9.9,0,0,1-2.4.3,10.6,10.6,0,0,1-4-.8,8.5,8.5,0,0,1-3.2-2.4,10.4,10.4,0,0,1-2.2-3.7,15.1,15.1,0,0,1-.7-5,14.1,14.1,0,0,1,.7-4.7,8.3,8.3,0,0,1,2.1-3.8,9,9,0,0,1,3.3-2.5,11.6,11.6,0,0,1,4.7-.9,11.8,11.8,0,0,1,4.3.8,10.2,10.2,0,0,1,3.2,2.2Z" transform="translate(-278.7 -125.1)"/>
      <path d="M564.1,260.7a5.7,5.7,0,0,1-4.2-1.5,6.4,6.4,0,0,1-1.4-4.4V240.7h-2.8a.8.8,0,0,1-.6-.2.9.9,0,0,1-.3-.7v-1.6l3.8-.5.9-7.1.3-.6.7-.2h2v8h6.7v2.9h-6.7v13.8a2.9,2.9,0,0,0,.7,2.2,2.9,2.9,0,0,0,1.8.7l1.1-.2a2,2,0,0,0,.8-.4l.6-.3.4-.2c.3,0,.4.1.6.4l1.2,1.9a5.8,5.8,0,0,1-2.5,1.5A8.1,8.1,0,0,1,564.1,260.7Z" transform="translate(-278.7 -125.1)"/>
      <path d="M583.1,236.9a11,11,0,0,1,4.5.9,8.5,8.5,0,0,1,3.5,2.4,12.1,12.1,0,0,1,2.2,3.7,15.3,15.3,0,0,1,.7,4.9,14.9,14.9,0,0,1-.7,4.9,12.1,12.1,0,0,1-2.2,3.7,8.5,8.5,0,0,1-3.5,2.4,11,11,0,0,1-4.5.9,11.1,11.1,0,0,1-4.6-.9,8.5,8.5,0,0,1-3.5-2.4,10.4,10.4,0,0,1-2.2-3.7,14.9,14.9,0,0,1-.7-4.9,15.3,15.3,0,0,1,.7-4.9,10.4,10.4,0,0,1,2.2-3.7,8.5,8.5,0,0,1,3.5-2.4A11.1,11.1,0,0,1,583.1,236.9Zm0,20.6a6.2,6.2,0,0,0,5.1-2.3c1.1-1.5,1.6-3.6,1.6-6.4a11,11,0,0,0-1.6-6.4,6.2,6.2,0,0,0-5.1-2.3,7.5,7.5,0,0,0-3.1.6,6.8,6.8,0,0,0-2.1,1.7,8,8,0,0,0-1.3,2.8,18.8,18.8,0,0,0-.4,3.6,10.6,10.6,0,0,0,1.7,6.4A6.1,6.1,0,0,0,583.1,257.5Z" transform="translate(-278.7 -125.1)"/>
      <path d="M599.1,260.3v-23h2.5a1,1,0,0,1,1,.8l.3,2.4a14.2,14.2,0,0,1,2.9-2.6,7.6,7.6,0,0,1,3.7-1,5.5,5.5,0,0,1,3.7,1.3,7.3,7.3,0,0,1,2.1,3.5,10.7,10.7,0,0,1,1.3-2.1,6.5,6.5,0,0,1,1.8-1.5,7.2,7.2,0,0,1,2-.9,9.1,9.1,0,0,1,2.3-.3,7.9,7.9,0,0,1,3.2.6,6.1,6.1,0,0,1,2.4,1.7,6.9,6.9,0,0,1,1.5,2.8,10.2,10.2,0,0,1,.6,3.7v14.6h-4.1V245.7a6.1,6.1,0,0,0-1.2-4.1,4,4,0,0,0-3.4-1.4,5.8,5.8,0,0,0-1.9.3,5.7,5.7,0,0,0-1.6,1.1,5.6,5.6,0,0,0-1.1,1.7,8.6,8.6,0,0,0-.4,2.4v14.6h-4V245.7a6.8,6.8,0,0,0-1.1-4.2,4.2,4.2,0,0,0-3.3-1.3,4.8,4.8,0,0,0-2.8.8,7.9,7.9,0,0,0-2.3,2.2v17.1Z" transform="translate(-278.7 -125.1)"/>
      <path d="M679.2,244.1a20.9,20.9,0,0,1-1.1,6.7,15.4,15.4,0,0,1-8.4,8.7,18.5,18.5,0,0,1-13.1,0,15.4,15.4,0,0,1-5.1-3.5,13.8,13.8,0,0,1-3.2-5.2,19.6,19.6,0,0,1,0-13.5,13.8,13.8,0,0,1,3.2-5.2,14.1,14.1,0,0,1,5.1-3.5,18.5,18.5,0,0,1,13.1,0,14.1,14.1,0,0,1,5.1,3.5,15.4,15.4,0,0,1,3.3,5.2A21.1,21.1,0,0,1,679.2,244.1Zm-4.5,0a18,18,0,0,0-.8-5.4,12.5,12.5,0,0,0-2.3-4.1,10.5,10.5,0,0,0-3.7-2.5,12.1,12.1,0,0,0-4.8-.9,11.9,11.9,0,0,0-4.7.9,11.5,11.5,0,0,0-3.7,2.5,12.5,12.5,0,0,0-2.3,4.1,18,18,0,0,0-.8,5.4,17.4,17.4,0,0,0,.8,5.3,12.5,12.5,0,0,0,2.3,4.1,11.5,11.5,0,0,0,3.7,2.5,11.9,11.9,0,0,0,4.7.9,12.1,12.1,0,0,0,4.8-.9,10.5,10.5,0,0,0,3.7-2.5,12.5,12.5,0,0,0,2.3-4.1A17.4,17.4,0,0,0,674.7,244.1Z" transform="translate(-278.7 -125.1)"/>
      <path d="M684.1,268.1V237.3h2.4a1,1,0,0,1,1.1.8l.3,2.8a13.1,13.1,0,0,1,3.4-2.9,9.3,9.3,0,0,1,4.4-1.1,8.6,8.6,0,0,1,3.6.8,7.4,7.4,0,0,1,2.8,2.2,11.5,11.5,0,0,1,1.7,3.7,19.8,19.8,0,0,1,.6,5.1,14.5,14.5,0,0,1-.7,4.7,11.3,11.3,0,0,1-1.9,3.8,8.7,8.7,0,0,1-3.2,2.5,9.2,9.2,0,0,1-4.1,1,8.7,8.7,0,0,1-3.7-.8,6.3,6.3,0,0,1-2.6-2v10.2Zm10.3-27.9a6.8,6.8,0,0,0-3.5.9,9.1,9.1,0,0,0-2.7,2.5v11.2a5.9,5.9,0,0,0,2.4,2.1,7.3,7.3,0,0,0,3,.6,5.8,5.8,0,0,0,4.9-2.3c1.2-1.5,1.7-3.7,1.7-6.5a15.1,15.1,0,0,0-.4-3.9,5.7,5.7,0,0,0-1.1-2.6,5.5,5.5,0,0,0-1.8-1.6A6.9,6.9,0,0,0,694.4,240.2Z" transform="translate(-278.7 -125.1)"/>
      <path d="M719,236.9a11.2,11.2,0,0,1,3.8.7,11,11,0,0,1,3.1,2,9.1,9.1,0,0,1,2,3.3,11.4,11.4,0,0,1,.7,4.3c0,.7,0,1.1-.2,1.3a.8.8,0,0,1-.7.3H712.3a10.4,10.4,0,0,0,.6,3.8,5.9,5.9,0,0,0,1.5,2.7,5.7,5.7,0,0,0,2.2,1.6,7.3,7.3,0,0,0,3,.6,6.8,6.8,0,0,0,2.6-.4l1.9-.7,1.3-.8a2.6,2.6,0,0,1,1-.4.8.8,0,0,1,.7.4l1.2,1.5a9.3,9.3,0,0,1-1.8,1.6l-2.3,1.1a10.5,10.5,0,0,1-2.4.6,11.5,11.5,0,0,1-2.6.3,11.2,11.2,0,0,1-4.4-.9,8.9,8.9,0,0,1-3.4-2.3,10.1,10.1,0,0,1-2.3-3.9,14.2,14.2,0,0,1-.8-5.2,12.5,12.5,0,0,1,.7-4.5,11.2,11.2,0,0,1,2.1-3.7,11.6,11.6,0,0,1,3.4-2.4A11.3,11.3,0,0,1,719,236.9Zm.1,3a6.4,6.4,0,0,0-4.6,1.7,8.2,8.2,0,0,0-2.1,4.7H725a7.5,7.5,0,0,0-.4-2.6,6.7,6.7,0,0,0-1.2-2,4.6,4.6,0,0,0-1.8-1.3A6.6,6.6,0,0,0,719.1,239.9Z" transform="translate(-278.7 -125.1)"/>
      <path d="M733.6,260.3v-23h2.3c.4,0,.8.1.9.3s.3.4.4.8l.2,3.5a9.6,9.6,0,0,1,2.7-3.7,5.9,5.9,0,0,1,3.9-1.3,3.2,3.2,0,0,1,1.4.2,3.1,3.1,0,0,1,1.2.5l-.3,3c-.1.4-.3.5-.7.5h-2.3a6.4,6.4,0,0,0-2,.3,4.4,4.4,0,0,0-1.5,1l-1.2,1.5a10.2,10.2,0,0,0-.9,2.1v14.5Z" transform="translate(-278.7 -125.1)"/>
      <path d="M764.4,260.3c-.4,0-.7,0-.9-.2a1,1,0,0,1-.5-.7l-.4-2.2-1.8,1.5a11.8,11.8,0,0,1-1.9,1.1l-2,.7-2.4.2a6.9,6.9,0,0,1-2.5-.4,4.8,4.8,0,0,1-3.4-3,6,6,0,0,1-.6-2.7,5,5,0,0,1,.8-2.6,6.7,6.7,0,0,1,2.4-2.3,18.5,18.5,0,0,1,4.4-1.6,38.3,38.3,0,0,1,6.7-.7v-1.8a6.3,6.3,0,0,0-1.2-4.1,4.2,4.2,0,0,0-3.4-1.3,9,9,0,0,0-2.5.3l-1.8.9-1.2.8a1.7,1.7,0,0,1-1.1.4l-.7-.2-.5-.5-.7-1.3a12,12,0,0,1,4.1-2.8,13,13,0,0,1,4.9-.9,9,9,0,0,1,3.4.6,6.7,6.7,0,0,1,2.5,1.8,8.5,8.5,0,0,1,1.6,2.8,12.3,12.3,0,0,1,.5,3.5v14.7Zm-8.7-2.4a6.4,6.4,0,0,0,2-.3,5.8,5.8,0,0,0,1.7-.6,6.5,6.5,0,0,0,1.5-1l1.4-1.3V250a30.8,30.8,0,0,0-4.8.4,15.8,15.8,0,0,0-3.2.9,5.4,5.4,0,0,0-1.8,1.4,2.7,2.7,0,0,0-.6,1.7,4.1,4.1,0,0,0,.3,1.6,2.7,2.7,0,0,0,.8,1l1.2.7Z" transform="translate(-278.7 -125.1)"/>
      <path d="M779.1,260.7a5.3,5.3,0,0,1-4.1-1.5,6,6,0,0,1-1.5-4.4V240.7h-2.8l-.6-.2a.9.9,0,0,1-.3-.7v-1.6l3.8-.5,1-7.1a.9.9,0,0,1,.3-.6l.6-.2h2v8h6.7v2.9h-6.7v13.8a3.4,3.4,0,0,0,.7,2.2,2.9,2.9,0,0,0,1.9.7l1.1-.2.8-.4.5-.3a.6.6,0,0,1,.5-.2.5.5,0,0,1,.5.4l1.2,1.9a5.8,5.8,0,0,1-2.5,1.5A8.1,8.1,0,0,1,779.1,260.7Z" transform="translate(-278.7 -125.1)"/>
      <path d="M798.1,236.9a10.6,10.6,0,0,1,4.5.9,8.5,8.5,0,0,1,3.5,2.4,10.4,10.4,0,0,1,2.2,3.7,15.3,15.3,0,0,1,.7,4.9,14.9,14.9,0,0,1-.7,4.9,10.4,10.4,0,0,1-2.2,3.7,8.5,8.5,0,0,1-3.5,2.4,10.6,10.6,0,0,1-4.5.9,11.4,11.4,0,0,1-4.6-.9,8.5,8.5,0,0,1-3.5-2.4,10.4,10.4,0,0,1-2.2-3.7,14.9,14.9,0,0,1-.7-4.9,15.3,15.3,0,0,1,.7-4.9,10.4,10.4,0,0,1,2.2-3.7,8.5,8.5,0,0,1,3.5-2.4A11.4,11.4,0,0,1,798.1,236.9Zm0,20.6a5.9,5.9,0,0,0,5.1-2.3,10.6,10.6,0,0,0,1.7-6.4,11,11,0,0,0-1.7-6.4,5.9,5.9,0,0,0-5.1-2.3,6.7,6.7,0,0,0-3,.6,6.2,6.2,0,0,0-2.2,1.7,7.9,7.9,0,0,0-1.2,2.8,13,13,0,0,0-.5,3.6,10.6,10.6,0,0,0,1.7,6.4A6.3,6.3,0,0,0,798.1,257.5Z" transform="translate(-278.7 -125.1)"/>
      <path d="M814.2,260.3v-23h2.3a1.2,1.2,0,0,1,.9.3,1.2,1.2,0,0,1,.3.8l.3,3.5a9.6,9.6,0,0,1,2.7-3.7,5.6,5.6,0,0,1,3.9-1.3,3.6,3.6,0,0,1,1.4.2,3.1,3.1,0,0,1,1.2.5l-.3,3a.6.6,0,0,1-.7.5h-2.3a6,6,0,0,0-2,.3,3.1,3.1,0,0,0-1.5,1,4.4,4.4,0,0,0-1.2,1.5,10.2,10.2,0,0,0-1,2.1v14.5Z" transform="translate(-278.7 -125.1)"/>
    </g>
    <g>
      <path class="cls-1" d="M362.6,294.5a84.3,84.3,0,0,1-79.3-111.8l14.6-2.5a73.4,73.4,0,0,0-6.8,30.2A71.5,71.5,0,0,0,362.6,282h.1a71.4,71.4,0,0,0,31.5-7.3l.6-.3-8.3-8.3,54-23.8a49,49,0,0,1-2.4,5.2v.3A85.4,85.4,0,0,1,422,270a83.4,83.4,0,0,1-59.3,24.5Z" transform="translate(-278.7 -125.1)"/>
      <path class="cls-1" d="M426.4,239.3a73.4,73.4,0,0,0,6.8-30.2,71.7,71.7,0,0,0-71.6-71.6,72.2,72.2,0,0,0-31.6,7.4l-.6.3,8.3,8.3-53.9,23.9c.7-1.8,1.5-3.5,2.3-5.3l.2-.3a82.3,82.3,0,0,1,15.9-22.1,84.1,84.1,0,0,1,138.8,87Z" transform="translate(-278.7 -125.1)"/>
    </g>
  </g>
</svg>
