<svg id="Layer_1" data-name="Layer 1" xmlns="http://www.w3.org/2000/svg" width="499.9" height="111.2" viewBox="0 0 499.9 111.2">
  <defs>
    <style>
      .cls-1 {
        fill: #fff;
      }

      .cls-2 {
        isolation: isolate;
      }
    </style>
  </defs>
  <title>factom-protocol-white</title>
  <g>
    <g>
      <path class="cls-1" d="M397,213a2.2,2.2,0,0,0-3,.5,50.1,50.1,0,0,1-15.8,14.6,48.4,48.4,0,0,1-24.1,6.5h-.3a48.9,48.9,0,0,1-39.2-19.7h-.2a.2.2,0,0,0-.2-.2l-.3-.3-.4-.2h-1.4l-.5.2h-.2v.3a.2.2,0,0,0-.2.2l-.3.2c0,.2,0,.2-.2.5v9.5a2.3,2.3,0,0,0,2.3,2.3,2.2,2.2,0,0,0,2.3-2.3v-2.6a53.4,53.4,0,0,0,39,16.7h.2a52.4,52.4,0,0,0,26.3-7.1A49.7,49.7,0,0,0,397.9,216,2.2,2.2,0,0,0,397,213Z" transform="translate(-300.5 -128)"/>
      <path class="cls-1" d="M351.8,135.1h0v-.5c0-.2,0-.2-.3-.4s0-.3-.2-.5l-.2-.2c0-.3-.3-.3-.5-.3l-.2-.2-8.2-4.6a2.1,2.1,0,0,0-3,.9c-.7,1.1-.2,2.3,1,3l2.5,1.4a57.2,57.2,0,0,0-15.8,6,55.7,55.7,0,0,0-19,19.3c-9.3,15.5-9.7,34.3-1.8,50.5a2.3,2.3,0,0,0,2,1.2,1.8,1.8,0,0,0,1-.2,2.1,2.1,0,0,0,.9-3,49.2,49.2,0,0,1,1.6-46.4,50,50,0,0,1,17.7-17.7,44.6,44.6,0,0,1,20.4-6.2h0a.8.8,0,0,0,.7-.3h0l.7-.4.2-.3.2-.2v-.2c0-.3,0-.3.3-.5Z" transform="translate(-300.5 -128)"/>
      <path class="cls-1" d="M409.8,201.9a2.3,2.3,0,0,0-3.1-.9l-2.1,1.1a52.2,52.2,0,0,0-4.6-42.9,54.5,54.5,0,0,0-41.5-26.4,2.1,2.1,0,0,0-2.3,2.1,2.2,2.2,0,0,0,2.1,2.3,48.8,48.8,0,0,1,40.1,69.1v1.6c0,.3,0,.3.2.5v.2l.3.3v.2l.6.4h1.7a.2.2,0,0,0,.2-.2l7.7-4.4A2.7,2.7,0,0,0,409.8,201.9Z" transform="translate(-300.5 -128)"/>
    </g>
    <g>
      <g class="cls-2">
        <path class="cls-1" d="M344.6,219.8a17.8,17.8,0,0,0-2.4,3.7,17.8,17.8,0,0,1,2.4-3.7" transform="translate(-300.5 -128)"/>
      </g>
      <path class="cls-1" d="M350.4,142a23.6,23.6,0,0,0,3.7-.2c3.9,0,6,1.6,5.1,4.7s-6,8.5-12.8,13.2c-1.1.7-2.5-1.2-2.3-1.9l.2-.2c5.8-4,10.2-8.4,11.2-11.4s-1.7-4.6-6.1-4.2h1" transform="translate(-300.5 -128)"/>
      <path class="cls-1" d="M373.1,146.2c2.3,1.2,3.2,3,2.6,5.8-2.4,8.4-18.8,21.6-36.9,29.2-3.5,1.4-6.8,2.6-9.8,3.5s-1.8-2.1-1.1-3,.4-.5.7-.5c2.7-.9,5.8-1.8,9-3.2,16.9-7.4,32.5-19.7,34.8-27.6.7-2.8-.2-4.9-2.8-5.8a22.9,22.9,0,0,0,3.5,1.6" transform="translate(-300.5 -128)"/>
      <path class="cls-1" d="M392.8,165l.5.9a5.9,5.9,0,0,1,.4,2.4v.2a10.4,10.4,0,0,1-1.8-3.5,6.1,6.1,0,0,0-.7-2.8l1.6,2.8" transform="translate(-300.5 -128)"/>
      <path class="cls-1" d="M396.8,175a6.3,6.3,0,0,1-.3,3.5c-2.3,8.3-16.4,20.4-33.4,29.4-1.8.7-3-.7-2.5-1.8a2.5,2.5,0,0,1,.9-1.2c17.4-9,31.8-21.3,34.1-29.7a5.2,5.2,0,0,0,0-3.9,22.9,22.9,0,0,1,1.2,3.7" transform="translate(-300.5 -128)"/>
      <path class="cls-1" d="M398.2,183.1v1.4a5.1,5.1,0,0,1-.3,2.1c-1.4,5.1-7.4,11.8-16,18.1-1.4.9-2.1-.5-1.8-1.4a3.3,3.3,0,0,1,.9-1.4c8.8-6.5,15.3-13.5,16.7-18.8a13.2,13.2,0,0,0,.2-2.8l.3,2.8" transform="translate(-300.5 -128)"/>
      <path class="cls-1" d="M335.5,217c-.2-.3-1.1-1.7-2.5-1.4-7.2,1.1-12.3.4-14.4-2.1v-.2h0a7.6,7.6,0,0,1,1.4,1.6l1.4,1.6c2.1,2.3,7.2,3,13.9,1.9C335.8,218.1,335.5,217.4,335.5,217Z" transform="translate(-300.5 -128)"/>
      <path class="cls-1" d="M356.2,217.9c0,.2.2.9-1,1.6-13,5.1-23.2,6.3-27.3,3.3a26.9,26.9,0,0,1-3.3-2.6c4,3.3,14.9,2.3,28.6-3.2,2.3-.5,3,.9,3,.9" transform="translate(-300.5 -128)"/>
      <path class="cls-1" d="M398.2,190.5c-.3,1-.3,2.6-.5,3.5a1,1,0,0,1-.2.7c-2.1,8.1-18.4,20.9-35.8,28.3-11.3,4.9-20.6,6.3-25.3,4.4-1.1-.5-2.5-1.1-3.7-1.8,15.6,6.5,63.1-19.8,65.5-35.8v.7" transform="translate(-300.5 -128)"/>
      <path class="cls-1" d="M394.9,203.3c-6.7,13.7-37.1,28.8-49.2,26.9l-4.1-.9c4.4,1.1,12.5-.3,22.2-4.4,15.8-6.8,30.4-18.1,32.5-25.6-.5,1.2-.9,2.8-1.4,4" transform="translate(-300.5 -128)"/>
      <path class="cls-1" d="M385.2,217c0,.2-.5.7-1.2,1.1a61.6,61.6,0,0,1-15.8,9.3,39.2,39.2,0,0,1-12.5,3.5h-4.6c3.7.2,9.2-1.2,15.7-3.7a78.9,78.9,0,0,0,17.9-10.5.8.8,0,0,1,.5-.2v.2c.2-.2,0,0,0,.3" transform="translate(-300.5 -128)"/>
      <path class="cls-1" d="M312.6,181.9a3.6,3.6,0,0,1-1.7-1.3,5.8,5.8,0,0,1-.7-2.8,6.8,6.8,0,0,1,.3-1.2v.5l-.3,1.6-.4,2.3h0v1.6c0,.3.2.7.2,1v.4c0,.3.2.3.2.5h0a3.2,3.2,0,0,0,1.7,1.4c.4,0,.7-.7.7-1.2A4.4,4.4,0,0,0,312.6,181.9Z" transform="translate(-300.5 -128)"/>
      <path class="cls-1" d="M381.2,151.3l-1.8-1.4L378,149c.7.7,2.3,1.6,2.1,4.2-.7,14.6-57.3,49.4-70.1,35.9a4.6,4.6,0,0,1-.9-2.7,23.6,23.6,0,0,0,.2,3.7h0v.2h0v.2h0v0a.8.8,0,0,0,.2.7v.5h0c0,.2.3.2.3.5l-.3-.3c.3.3.3.7.5.9h0c3.3,4.5,15.5,3.5,31.3-3.2,20.2-8.6,38.5-23,41.1-32.5C383.3,154.6,382.8,152.5,381.2,151.3Z" transform="translate(-300.5 -128)"/>
      <path class="cls-1" d="M387.9,157.8a24.4,24.4,0,0,0-2.7-3c1.4,1.4,1.6,3.3,1.1,5.6-2.5,9.7-21.8,24.8-42.7,33.6-16.4,7-29.2,8.1-32.7,3.5h0a3.1,3.1,0,0,1-.7-1.6,34.3,34.3,0,0,0,1.2,3.9c.2.7.2.9.7,1.2h0c3.5,4.6,16.5,3.4,33.2-3.5,21.3-9.1,40.8-24.4,43.6-34.3C389.3,161.1,389.1,159.2,387.9,157.8Z" transform="translate(-300.5 -128)"/>
      <path class="cls-1" d="M342.2,143.4l-1.3.5-1.4.5a6.3,6.3,0,0,1-1.4.4l-1.4.7-1.2.5a5.4,5.4,0,0,0-1.1.5l-1.2.4-.9.5-1,.4-.9.7-.9.7c-.5.3-.5.5-.9.7l-1,.7-.9.7-1.2,1-1.1.9a10.2,10.2,0,0,0-3,2.8,5.1,5.1,0,0,0-1.4,2.1c0,.2-.3.4-.3.6v.5a2.6,2.6,0,0,0,.3,1.6c1.4,1.9,6.5,1.4,13.2-1.4a37.3,37.3,0,0,0,6-3,.6.6,0,0,0,0-1.1c-.2-.3-.9-1-1.4-.7s-3.2,1.8-4.8,2.5c-5.4,2.3-9.5,2.6-10.5,1.2a2.1,2.1,0,0,1-.2-1.6,9,9,0,0,1,1.4-2.4l3.5-3.2a53.6,53.6,0,0,1,9.9-5.6,3.3,3.3,0,0,1,1.7-1.1c5.3-1.7,8.8-1.2,8.1,1.4a5.5,5.5,0,0,1-1.6,2.7c.4.5,2.5,1,3.2.5a7.4,7.4,0,0,0,2.1-3.5C351.3,142.7,347.8,141.8,342.2,143.4Z" transform="translate(-300.5 -128)"/>
      <path class="cls-1" d="M329.7,164.5c-6.5,2.1-11.1,2.1-12.5.3a2.9,2.9,0,0,1-.5-2.6,6.8,6.8,0,0,1,1-2.1c.2-.4.7-.9,1.1-1.6h0l-.7.7c-.2.5-.7.9-1.1,1.6a9.4,9.4,0,0,0-1,1.4c-.2.5-.7,1.2-.9,1.6a6.1,6.1,0,0,1-.5,1.2,1,1,0,0,1-.2.7v1.2h0a1.4,1.4,0,0,0,.5.9h0c1.4,1.6,4.6,1.8,6.9,1.4,8.2-.9,8.4-2.3,8.4-3.3S330.6,164.5,329.7,164.5Z" transform="translate(-300.5 -128)"/>
      <path class="cls-1" d="M365,143.2l-1.6-.5-1.4-.2c2.1.7,3,2.3,2.3,4.6-1.9,6.5-14.6,16.7-28.8,22.8-11.1,4.6-19.7,5.3-22,2.3a3.8,3.8,0,0,1-.5-3.2,12.1,12.1,0,0,0,.5-1.4c-.5,1.1-1.2,2.7-1.6,3.9s-.3.5-.3.7-.2.7-.2.9a3,3,0,0,0,.7,2.8c2.5,3.5,11.8,2.6,24.1-2.5,15.6-6.5,29.7-17.7,31.6-24.9C368.5,146,367.3,144.1,365,143.2Z" transform="translate(-300.5 -128)"/>
      <path class="cls-1" d="M315.6,209.1s-.3-.2-.7-1.4h0v-.2a15.7,15.7,0,0,1-1.2-1.9c3.5,4.9,16.7,3.7,33.9-3.5A127.4,127.4,0,0,0,381,181.5a1.6,1.6,0,0,1,2.3.9,1.8,1.8,0,0,1-.5,2.3c-8.3,7.5-20.6,15.1-33.4,20.7-16,6.7-28.5,8.1-32.9,4.4-.2.2-.7-.5-.9-.7" transform="translate(-300.5 -128)"/>
      <path class="cls-1" d="M315.6,209.1" transform="translate(-300.5 -128)"/>
    </g>
  </g>
  <g>
    <path class="cls-1" d="M545,183.5c0-19.9,14.9-33.3,33.9-33.3a28.9,28.9,0,0,1,24,11.7,3,3,0,0,1-1.2,4.4l-4.4,2.3a2.7,2.7,0,0,1-3.5-.9,19,19,0,0,0-14.9-7.3c-12.9,0-22.2,9.9-22.2,23.4s9.6,23.4,22.2,23.4a18.8,18.8,0,0,0,14.9-7.3,2.7,2.7,0,0,1,3.5-.9l4.4,2.3a2.9,2.9,0,0,1,.9,4.4,29.2,29.2,0,0,1-24,11.7C559.6,217.1,545,203.4,545,183.5Z" transform="translate(-300.5 -128)"/>
    <path class="cls-1" d="M659,183.5c0-15.5,8.7-27.8,22.2-31.9a7.2,7.2,0,0,1,2-.5,44.3,44.3,0,0,1,8.8-1.2c19.3,0,33,14,33,33.3s-13.7,33.3-33,33.3S659,202.8,659,183.5Zm54.6,0c0-13.5-8.5-23.4-21.3-23.4s-21.4,9.9-21.4,23.4,8.5,23.4,21.4,23.4S713.6,196.9,713.6,183.5Z" transform="translate(-300.5 -128)"/>
    <path class="cls-1" d="M520.5,151.3H510.2a3,3,0,0,0-2.6,1.8l-23.4,58.7a2.9,2.9,0,0,0,2.7,4.1h6.7a3.1,3.1,0,0,0,2.6-1.7l4.1-10.5,3.2-10,3.2-8.7,8.2-22,11.7,30.7H514.9a3.5,3.5,0,0,0-2.9,2.1l-2.1,6.1a1.5,1.5,0,0,0,1.5,2h18.1l4.1,10.6a2.6,2.6,0,0,0,2.6,1.7H543a2.9,2.9,0,0,0,2.6-4.1l-22.5-59A2.9,2.9,0,0,0,520.5,151.3Z" transform="translate(-300.5 -128)"/>
    <path class="cls-1" d="M483.9,177.9H462.6V161.3H493a2.9,2.9,0,0,0,2.6-1.8l1.8-4.1a2.9,2.9,0,0,0-2.7-4.1H454.1a2.8,2.8,0,0,0-2.9,3V213a2.7,2.7,0,0,0,2.9,2.9h5.6a2.7,2.7,0,0,0,2.9-2.9V187.9h19.6a3,3,0,0,0,2.6-1.8l1.8-4.1A2.9,2.9,0,0,0,483.9,177.9Z" transform="translate(-300.5 -128)"/>
    <path class="cls-1" d="M609.6,151.3a3,3,0,0,0-2.4,4.7l2.7,4.1a2.6,2.6,0,0,0,2.3,1.2h16.4v54.6H640V161.3h16.3a3.7,3.7,0,0,0,2.4-1.2,17.4,17.4,0,0,1,2.9-3.8,3,3,0,0,0-2.1-5Z" transform="translate(-300.5 -128)"/>
    <g>
      <path class="cls-1" d="M783.4,152.8l-13.1,31.6a3,3,0,0,0,0,2.3l4.1,9.6c.6,1.2,2.3,1.2,2.6,0l12-28.6v45a2.7,2.7,0,0,0,2.9,2.9h5.6a2.7,2.7,0,0,0,2.9-2.9V154a2.7,2.7,0,0,0-2.9-2.9H786.4A3.4,3.4,0,0,0,783.4,152.8Z" transform="translate(-300.5 -128)"/>
      <path class="cls-1" d="M768.2,208a2.9,2.9,0,0,0,2.7-4.1l-4.4-10.2h0l-16.7-40.6a2.8,2.8,0,0,0-2.6-1.8H736.1a2.8,2.8,0,0,0-2.9,3V213a2.7,2.7,0,0,0,2.9,2.9h5.6a2.7,2.7,0,0,0,2.9-2.9V167.7L760.4,206a2.6,2.6,0,0,0,2.6,1.7h5.2Z" transform="translate(-300.5 -128)"/>
    </g>
  </g>
</svg>
